<?xml version="1.0" encoding="UTF-8" standalone="no"?>
<!-- Created with Inkscape (http://www.inkscape.org/) -->

<svg
   width="48"
   height="48"
   viewBox="0 0 12.7 12.7"
   version="1.1"
   id="svg1"
   xml:space="preserve"
   inkscape:version="1.4.3 (0d15f75042, 2025-12-25)"
   sodipodi:docname="tilepeek.svg"
   xmlns:inkscape="http://www.inkscape.org/namespaces/inkscape"
   xmlns:sodipodi="http://sodipodi.sourceforge.net/DTD/sodipodi-0.dtd"
   xmlns:xlink="http://www.w3.org/1999/xlink"
   xmlns="http://www.w3.org/2000/svg"
   xmlns:svg="http://www.w3.org/2000/svg"><sodipodi:namedview
     id="namedview1"
     pagecolor="#999999"
     bordercolor="#000000"
     borderopacity="0.25"
     inkscape:showpageshadow="2"
     inkscape:pageopacity="0.0"
     inkscape:pagecheckerboard="0"
     inkscape:deskcolor="#d1d1d1"
     inkscape:document-units="px"
     showgrid="false"
     inkscape:zoom="1"
     inkscape:cx="37.5"
     inkscape:cy="32"
     inkscape:window-width="3440"
     inkscape:window-height="1382"
     inkscape:window-x="0"
     inkscape:window-y="0"
     inkscape:window-maximized="1"
     inkscape:current-layer="layer4"><inkscape:grid
       id="grid1"
       units="px"
       originx="0"
       originy="0"
       spacingx="0.26458333"
       spacingy="0.26458333"
       empcolor="#0099e5"
       empopacity="0.30196078"
       color="#0099e5"
       opacity="0.14901961"
       empspacing="4"
       enabled="true"
       visible="false" /></sodipodi:namedview><defs
     id="defs1"><linearGradient
       id="linearGradient27"
       inkscape:collect="always"><stop
         style="stop-color:#fff6d5;stop-opacity:1;"
         offset="0"
         id="stop27" /><stop
         style="stop-color:#b5a56e;stop-opacity:1;"
         offset="1"
         id="stop28" /></linearGradient><linearGradient
       id="linearGradient26"
       inkscape:collect="always"><stop
         style="stop-color:#3d281e;stop-opacity:1;"
         offset="0.45752826"
         id="stop25" /><stop
         style="stop-color:#1c0a0a;stop-opacity:1;"
         offset="1"
         id="stop26" /></linearGradient><linearGradient
       id="linearGradient22"
       inkscape:collect="always"><stop
         style="stop-color:#b0e2f8;stop-opacity:1;"
         offset="0.45752826"
         id="stop23" /><stop
         style="stop-color:#4f86d7;stop-opacity:1;"
         offset="1"
         id="stop24" /></linearGradient><linearGradient
       id="linearGradient20"
       inkscape:collect="always"><stop
         style="stop-color:#ffffff;stop-opacity:1;"
         offset="0.21763171"
         id="stop20" /><stop
         style="stop-color:#f9f9e4;stop-opacity:1;"
         offset="0.48315561"
         id="stop22" /><stop
         style="stop-color:#afc3d1;stop-opacity:1;"
         offset="1"
         id="stop21" /></linearGradient><linearGradient
       id="linearGradient7"
       inkscape:collect="always"><stop
         style="stop-color:#47cbfa;stop-opacity:1;"
         offset="0"
         id="stop8" /><stop
         style="stop-color:#023f81;stop-opacity:1;"
         offset="1"
         id="stop9" /></linearGradient><linearGradient
       id="linearGradient6"
       inkscape:collect="always"><stop
         style="stop-color:#bce24e;stop-opacity:1;"
         offset="0"
         id="stop6" /><stop
         style="stop-color:#247721;stop-opacity:1;"
         offset="1"
         id="stop7" /></linearGradient><radialGradient
       inkscape:collect="always"
       xlink:href="#linearGradient6"
       id="radialGradient7"
       cx="6.3499999"
       cy="6.3499999"
       fx="6.3499999"
       fy="6.3499999"
       r="4.7624998"
       gradientUnits="userSpaceOnUse"
       gradientTransform="matrix(2.4321784,0,0,2.4321784,-9.0943332,-9.0943332)" /><radialGradient
       inkscape:collect="always"
       xlink:href="#linearGradient7"
       id="radialGradient9"
       cx="8.0747776"
       cy="4.3324924"
       fx="8.0500307"
       fy="4.9945354"
       r="3.0638747"
       gradientTransform="matrix(1.7228599,1.7228599,-2.2539826,2.2539826,4.3203176,-19.44374)"
       gradientUnits="userSpaceOnUse" /><clipPath
       clipPathUnits="userSpaceOnUse"
       id="clipPath15"><rect
         style="fill:#ff1de6;fill-opacity:0.529846;stroke:none;stroke-width:0.264569;stroke-linecap:round;stroke-linejoin:round;stroke-dasharray:none;stroke-opacity:0.5"
         id="rect16"
         width="9.5249996"
         height="9.5249996"
         x="1.5874999"
         y="1.5875" /></clipPath><radialGradient
       inkscape:collect="always"
       xlink:href="#linearGradient20"
       id="radialGradient21"
       cx="8.451993"
       cy="8.1199551"
       fx="8.8505116"
       fy="7.6553535"
       r="2.5925124"
       gradientTransform="matrix(1.2527336,0,0,0.73682773,-2.0357492,2.7636495)"
       gradientUnits="userSpaceOnUse" /><radialGradient
       inkscape:collect="always"
       xlink:href="#linearGradient22"
       id="radialGradient24"
       cx="8.7746572"
       cy="8.3214207"
       fx="8.7746572"
       fy="8.3214207"
       r="1.3597093"
       gradientUnits="userSpaceOnUse"
       gradientTransform="translate(0.08568023,0.54457495)" /><radialGradient
       inkscape:collect="always"
       xlink:href="#linearGradient26"
       id="radialGradient25"
       gradientUnits="userSpaceOnUse"
       cx="8.7746572"
       cy="8.3214207"
       fx="8.7746572"
       fy="8.3214207"
       r="1.3597093"
       gradientTransform="matrix(0.44474702,0,0,0.44474702,4.9578345,5.1650683)" /><radialGradient
       inkscape:collect="always"
       xlink:href="#linearGradient27"
       id="radialGradient28"
       cx="8.8635409"
       cy="8.8635409"
       fx="9.088047"
       fy="9.4842348"
       r="2.2489579"
       gradientUnits="userSpaceOnUse"
       gradientTransform="matrix(1.4110518,0,0,1.4110518,-3.6433747,-3.6433747)" /><clipPath
       clipPathUnits="userSpaceOnUse"
       id="clipPath28"><rect
         style="fill:#ff0000;fill-opacity:0.503446;stroke:none;stroke-width:0.15875;stroke-linecap:round;stroke-linejoin:round;stroke-dasharray:none;stroke-opacity:0.5"
         id="rect29"
         width="4.4979167"
         height="4.4979167"
         x="6.6145825"
         y="6.6145825" /></clipPath></defs><g
     inkscape:label="Map"
     inkscape:groupmode="layer"
     id="layer1"><rect
       style="fill:#ffffff;stroke-width:0.0470316"
       id="rect1"
       width="10.583333"
       height="10.583333"
       x="1.0583333"
       y="1.0583333"
       ry="0.26458332" /><g
       id="g15"
       clip-path="url(#clipPath15)"><rect
         style="fill:url(#radialGradient7);stroke-width:0.529166"
         id="rect2"
         width="9.5249996"
         height="9.5249996"
         x="1.5874999"
         y="1.5874999" /><path
         style="fill:url(#radialGradient9);stroke-width:0.264583"
         d="m 11.112499,1.5874999 -4.1904297,-1e-7 c 0,0 0.2216803,0.905234 -0.5720696,1.5109504 C 5.5562497,3.7041664 4.6941759,4.0419361 5.027083,4.7624997 5.6052841,6.0139923 4.9869337,6.7952077 5.5562497,7.408333 6.35,8.263163 9.2788936,7.9958249 9.5249994,6.0854163 9.8132489,3.8478656 11.112499,3.7041664 11.112499,3.7041664 Z"
         id="path7"
         sodipodi:nodetypes="ccsssscc" /><path
         style="fill:none;stroke:#225500;stroke-width:0.15875;stroke-linecap:round;stroke-linejoin:round;stroke-dasharray:none;stroke-opacity:0.5"
         d="m 6.3499994,1.5874998 c 0,0 -0.069675,1.1782627 -1.396333,1.5129456 C 3.637119,3.4325777 3.3489782,3.533329 3.4241181,4.0884993 3.4886218,4.5650839 4.4121722,5.0254472 4.53142,5.4513323 4.6432731,5.8508078 3.9351807,6.5927051 4.1736764,7.7511134 4.4121723,8.9095214 6.3031031,8.1875555 5.9112887,9.914611 5.5194742,11.641666 7.6165233,10.490018 8.5177071,9.4035485 9.1328695,8.6619071 9.3048656,7.6377975 10.238284,6.5756699 10.640932,6.1175012 10.518072,5.2102858 10.596028,4.8594806 10.664169,4.5528431 11.112499,4.1566409 11.112499,4.1566409"
         id="path9"
         sodipodi:nodetypes="cssssssssc" /><path
         style="fill:none;stroke:#0066ff;stroke-width:0.15875;stroke-opacity:1;stroke-dasharray:none;stroke-linejoin:round;stroke-linecap:round"
         d="m 6.9220693,1.5874998 c 0,0 0.2216803,0.905234 -0.5720696,1.5109504 C 5.5562497,3.7041664 4.6941759,4.0419361 5.027083,4.7624997 5.6052841,6.0139923 4.9869337,6.7952077 5.5562497,7.408333 6.35,8.263163 9.2788936,7.9958249 9.5249994,6.0854163 9.8132489,3.8478656 11.112499,3.7041664 11.112499,3.7041664"
         id="path10"
         sodipodi:nodetypes="cssssc" /><path
         style="fill:none;stroke:#225500;stroke-width:0.15875;stroke-linecap:round;stroke-linejoin:round;stroke-dasharray:none;stroke-opacity:0.5"
         d="m 4.822323,1.5874998 c 0,0 0.5350001,0.9987902 -0.7916579,1.3334731 C 2.7141177,3.2531052 2.8618386,3.866635 2.9241591,4.1782355 3.0184777,4.649826 3.7146528,5.1792897 3.7366134,5.6564437 3.7946265,6.9169367 2.3712064,7.6182621 2.6097021,8.7766704 2.848198,9.9350784 4.6109341,9.0592789 4.2191197,10.786334 3.8273052,12.513389 9.3318675,11.759976 9.9278479,10.480383 10.440455,9.379797 9.8561025,7.5737002 10.57159,7.0115316 11.115017,6.5845535 11.39335,5.5881299 11.341072,5.0908088"
         id="path11"
         sodipodi:nodetypes="csssssssc" /><path
         style="fill:none;stroke:#225500;stroke-width:0.15875;stroke-linecap:round;stroke-linejoin:round;stroke-dasharray:none;stroke-opacity:0.5"
         d="m 2.3481669,1.3054716 c 0,0 0.5193129,0.248222 -0.060949,1.4873067 -0.5217408,1.1141195 0.163311,1.3172997 0.3036348,1.9365673 0.1062826,0.4690391 0.2007985,0.9106688 0.056106,1.4647395 -0.3188269,1.220884 -1.7628104,0.9883153 -1.255106,3.4927671 0.234979,1.1591268 1.8986763,0.227759 1.5068619,1.9548138 -0.3918145,1.727055 7.4767903,0.541352 8.0727703,-0.738241 0.512607,-1.1005858 -0.359034,-2.9579604 0.356453,-3.520129"
         id="path12"
         sodipodi:nodetypes="cssssssc" /><path
         style="fill:none;stroke:#0066ff;stroke-width:0.15875;stroke-linecap:round;stroke-linejoin:round;stroke-dasharray:none;stroke-opacity:0.5"
         d="m 7.5301075,1.5874998 c 0,0 -0.054557,0.285618 -0.3777816,1.2303174 C 6.8730697,3.6340081 5.4466848,4.272743 6.0092985,4.832658 7.0318352,5.8502897 6.1328518,6.0234669 6.7021678,6.6365922 7.4959181,7.4914222 8.3546362,6.5406228 8.9403473,4.7056374 9.4156855,3.2164413 11.369746,3.3299891 11.369746,3.3299891"
         id="path13"
         sodipodi:nodetypes="cssssc" /><path
         style="fill:none;stroke:#0066ff;stroke-width:0.15875;stroke-linecap:round;stroke-linejoin:round;stroke-dasharray:none;stroke-opacity:0.5"
         d="m 7.9744431,1.5173415 c 0,0 -0.014025,0.2169525 -0.1439208,1.2069314 C 7.6681965,3.9614133 6.6447235,3.9085398 7.0149001,4.7391137 7.6138,6.0828794 8.4269768,3.7341178 8.9871195,3.3492445 9.892578,2.7271052 11.34636,2.8622674 11.34636,2.8622674"
         id="path14"
         sodipodi:nodetypes="csssc" /><path
         style="fill:none;stroke:#0066ff;stroke-width:0.15875;stroke-linecap:round;stroke-linejoin:round;stroke-dasharray:none;stroke-opacity:0.5"
         d="m 8.7449929,1.5187295 c 0,0 -0.5524383,0.7161424 -0.014871,1.0770256 0.4140097,0.2779357 0.6851543,-0.757291 2.5240052,-0.7922516"
         id="path15"
         sodipodi:nodetypes="csc" /></g><rect
       style="fill:#ffffff;fill-opacity:1;stroke:none;stroke-width:0.15875;stroke-linecap:round;stroke-linejoin:round;stroke-dasharray:none;stroke-opacity:0.5"
       id="rect17"
       width="0.5291667"
       height="9.5249996"
       x="6.0854163"
       y="1.5874999" /><rect
       style="fill:#ffffff;fill-opacity:1;stroke:none;stroke-width:0.15875;stroke-linecap:round;stroke-linejoin:round;stroke-dasharray:none;stroke-opacity:0.5"
       id="rect18"
       width="0.5291667"
       height="9.5249996"
       x="6.0854163"
       y="-11.112499"
       transform="rotate(90)" /><rect
       style="fill:url(#radialGradient28);fill-opacity:1;stroke:none;stroke-width:0.156952;stroke-linecap:round;stroke-linejoin:round;stroke-dasharray:none;stroke-opacity:0.5"
       id="rect27"
       width="4.4979157"
       height="4.4979157"
       x="6.614583"
       y="6.614583" /></g><g
     inkscape:groupmode="layer"
     id="layer3"
     inkscape:label="Page Curl" /><g
     inkscape:groupmode="layer"
     id="layer4"
     inkscape:label="Eye"><g
       id="g28"
       clip-path="url(#clipPath28)"><path
         style="fill:url(#radialGradient21);stroke:none;stroke-width:0.15875;stroke-linecap:round;stroke-linejoin:round;stroke-dasharray:none;stroke-opacity:0.5"
         d="m 5.8871063,9.0291602 c 0,0 1.1058969,-1.595392 2.7194184,-1.577262 1.6135193,0.01813 2.4656043,1.087767 2.4656043,1.087767 0,0 -0.03626,1.8673338 -2.1211446,1.9579808 C 6.8660969,10.588296 5.8871063,9.0291602 5.8871063,9.0291602 Z"
         id="path20" /><circle
         style="fill:url(#radialGradient24);stroke:none;stroke-width:0.15875;stroke-linecap:round;stroke-linejoin:round;stroke-dasharray:none;stroke-opacity:0.5"
         id="path22"
         cx="8.8603363"
         cy="8.8659945"
         r="1.3597093" /><circle
         style="fill:url(#radialGradient25);fill-opacity:1;stroke:none;stroke-width:0.0706035;stroke-linecap:round;stroke-linejoin:round;stroke-dasharray:none;stroke-opacity:0.5"
         id="circle24"
         cx="8.8603363"
         cy="8.8659945"
         r="0.60472667" /><circle
         style="fill:#fff6d5;fill-opacity:1;stroke:none;stroke-width:0.0250145;stroke-linecap:round;stroke-linejoin:round;stroke-dasharray:none;stroke-opacity:0.5"
         id="circle26"
         cx="9.0051193"
         cy="8.5983658"
         r="0.21425198" /><circle
         style="fill:#fff6d5;fill-opacity:1;stroke:none;stroke-width:0.0111841;stroke-linecap:round;stroke-linejoin:round;stroke-dasharray:none;stroke-opacity:0.5"
         id="circle27"
         cx="9.3955946"
         cy="8.2693148"
         r="0.095793359" /><path
         style="fill:#483e37;fill-opacity:1;stroke:none;stroke-width:0.15875;stroke-linecap:round;stroke-linejoin:round;stroke-dasharray:none;stroke-opacity:0.5"
         d="m 5.8871063,9.0291602 c 0,0 1.1058964,-1.577109 2.7194184,-1.577262 1.6135203,-1.54e-4 2.4656043,1.087767 2.4656043,1.087767 l 0.278222,-0.104353 c 0,0 -0.581638,-1.2571135 -2.7080904,-1.172679 -1.7147631,0.068088 -2.7938567,1.752454 -2.7551543,1.766527 z"
         id="path28"
         sodipodi:nodetypes="csccsc" /></g></g></svg>
